<svg id="visual" viewBox="0 0 960 540" width="960" height="540" xmlns="http://www.w3.org/2000/svg" xmlns:xlink="http://www.w3.org/1999/xlink" version="1.1"><rect x="0" y="0" width="960" height="540" fill="#DBD0C0"></rect><path d="M0 64L22.8 63.5C45.7 63 91.3 62 137 61.7C182.7 61.3 228.3 61.7 274 57.3C319.7 53 365.3 44 411.2 41.5C457 39 503 43 548.8 49.8C594.7 56.7 640.3 66.3 686 66.3C731.7 66.3 777.3 56.7 823 57.2C868.7 57.7 914.3 68.3 937.2 73.7L960 79L960 0L937.2 0C914.3 0 868.7 0 823 0C777.3 0 731.7 0 686 0C640.3 0 594.7 0 548.8 0C503 0 457 0 411.2 0C365.3 0 319.7 0 274 0C228.3 0 182.7 0 137 0C91.3 0 45.7 0 22.8 0L0 0Z" fill="#FAEEE0" stroke-linecap="round" stroke-linejoin="miter"></path></svg>