<svg id="visual" viewBox="0 0 960 540" width="960" height="540" xmlns="http://www.w3.org/2000/svg" xmlns:xlink="http://www.w3.org/1999/xlink" version="1.1"><rect x="0" y="0" width="960" height="540" fill="#FAEEE0"></rect><path d="M0 64L22.8 57.8C45.7 51.7 91.3 39.3 137 35.8C182.7 32.3 228.3 37.7 274 44C319.7 50.3 365.3 57.7 411.2 62.3C457 67 503 69 548.8 71.2C594.7 73.3 640.3 75.7 686 73.5C731.7 71.3 777.3 64.7 823 58.5C868.7 52.3 914.3 46.7 937.2 43.8L960 41L960 0L937.2 0C914.3 0 868.7 0 823 0C777.3 0 731.7 0 686 0C640.3 0 594.7 0 548.8 0C503 0 457 0 411.2 0C365.3 0 319.7 0 274 0C228.3 0 182.7 0 137 0C91.3 0 45.7 0 22.8 0L0 0Z" fill="#DBD0C0" stroke-linecap="round" stroke-linejoin="miter"></path></svg>